<svg width="32" height="33" viewBox="0 0 32 33" fill="none" xmlns="http://www.w3.org/2000/svg">
<g clip-path="url(#clip0_401_99)">
<path fill-rule="evenodd" clip-rule="evenodd" d="M28.375 2.587H3.625C3.07799 2.587 2.55339 2.80688 2.16659 3.19827C1.7798 3.58966 1.5625 4.1205 1.5625 4.674V21.37C1.5625 21.9235 1.7798 22.4544 2.16659 22.8458C2.55339 23.2371 3.07799 23.457 3.625 23.457H8.78125C9.42164 23.457 10.0532 23.6079 10.626 23.8977C11.1988 24.1875 11.697 24.6082 12.0813 25.1266L16 30.413L19.9187 25.1266C20.303 24.6082 20.8012 24.1875 21.374 23.8977C21.9468 23.6079 22.5784 23.457 23.2188 23.457H28.375C28.922 23.457 29.4466 23.2371 29.8334 22.8458C30.2202 22.4544 30.4375 21.9235 30.4375 21.37V4.674C30.4375 4.1205 30.2202 3.58966 29.8334 3.19827C29.4466 2.80688 28.922 2.587 28.375 2.587ZM3.625 0.5C2.53098 0.5 1.48177 0.93976 0.708185 1.72254C-0.0654029 2.50531 -0.5 3.56699 -0.5 4.674L-0.5 21.37C-0.5 22.477 -0.0654029 23.5387 0.708185 24.3215C1.48177 25.1043 2.53098 25.544 3.625 25.544H8.78125C9.10144 25.544 9.41724 25.6195 9.70363 25.7644C9.99002 25.9092 10.2391 26.1196 10.4313 26.3788L14.35 31.6652C14.5421 31.9244 14.7912 32.1348 15.0776 32.2797C15.364 32.4246 15.6798 32.5 16 32.5C16.3202 32.5 16.636 32.4246 16.9224 32.2797C17.2088 32.1348 17.4579 31.9244 17.65 31.6652L21.5688 26.3788C21.7609 26.1196 22.01 25.9092 22.2964 25.7644C22.5828 25.6195 22.8986 25.544 23.2188 25.544H28.375C29.469 25.544 30.5182 25.1043 31.2918 24.3215C32.0654 23.5387 32.5 22.477 32.5 21.37V4.674C32.5 3.56699 32.0654 2.50531 31.2918 1.72254C30.5182 0.93976 29.469 0.5 28.375 0.5L3.625 0.5Z" fill="#23A6F0"/>
<path fill-rule="evenodd" clip-rule="evenodd" d="M14.0214 11.0287C13.6071 10.4228 12.9945 9.95953 12.2758 9.70855C11.5571 9.45757 10.7711 9.43242 10.0358 9.6369C9.30058 9.84137 8.65588 10.2644 8.1986 10.8424C7.74133 11.4205 7.4962 12.1222 7.50004 12.8423C7.50043 13.4386 7.67132 14.0238 7.99487 14.5369C8.31843 15.0499 8.78277 15.472 9.33938 15.759C9.896 16.0459 10.5245 16.1873 11.1591 16.1682C11.7938 16.1491 12.4113 15.9704 12.9473 15.6506C12.6686 16.4276 12.1497 17.2565 11.2946 18.0874C11.131 18.2463 11.0413 18.4597 11.0453 18.6807C11.0493 18.9017 11.1466 19.1122 11.3159 19.2658C11.4851 19.4194 11.7124 19.5036 11.9477 19.4999C12.1831 19.4961 12.4072 19.4047 12.5708 19.2458C15.7315 16.1699 15.321 12.8263 14.0214 11.0327V11.0287ZM22.5294 11.0287C22.1151 10.4228 21.5025 9.95953 20.7838 9.70855C20.0651 9.45757 19.279 9.43242 18.5438 9.6369C17.8086 9.84137 17.1639 10.2644 16.7066 10.8424C16.2493 11.4205 16.0042 12.1222 16.008 12.8423C16.0084 13.4386 16.1793 14.0238 16.5029 14.5369C16.8264 15.0499 17.2907 15.472 17.8474 15.759C18.404 16.0459 19.0324 16.1873 19.6671 16.1682C20.3018 16.1491 20.9193 15.9704 21.4553 15.6506C21.1766 16.4276 20.6576 17.2565 19.8026 18.0874C19.639 18.2463 19.5493 18.4597 19.5533 18.6807C19.5573 18.9017 19.6546 19.1122 19.8239 19.2658C19.9931 19.4194 20.2204 19.5036 20.4557 19.4999C20.6911 19.4961 20.9152 19.4047 21.0788 19.2458C24.2395 16.1699 23.829 12.8263 22.5294 11.0327V11.0287Z" fill="#23A6F0"/>
</g>
<defs>
<clipPath id="clip0_401_99">
<rect width="32" height="32" fill="white" transform="translate(0 0.5)"/>
</clipPath>
</defs>
</svg>
