<svg width="32" height="33" viewBox="0 0 32 33" fill="none" xmlns="http://www.w3.org/2000/svg">
<g clip-path="url(#clip0_401_92)">
<path d="M0.5 12C0.5 8.95001 1.7116 6.02494 3.86827 3.86827C6.02494 1.7116 8.95001 0.5 12 0.5C15.05 0.5 17.9751 1.7116 20.1317 3.86827C22.2884 6.02494 23.5 8.95001 23.5 12C23.5 15.05 22.2884 17.9751 20.1317 20.1317C17.9751 22.2884 15.05 23.5 12 23.5C8.95001 23.5 6.02494 22.2884 3.86827 20.1317C1.7116 17.9751 0.5 15.05 0.5 12H0.5Z" fill="#23A6F0"/>
<path d="M25.6158 10.4167H28.625C28.8792 10.4167 29.1229 10.5176 29.3026 10.6974C29.4824 10.8771 29.5833 11.1208 29.5833 11.375V28.625C29.5833 28.8792 29.4824 29.1229 29.3026 29.3026C29.1229 29.4824 28.8792 29.5833 28.625 29.5833H11.375C11.1208 29.5833 10.8771 29.4824 10.6974 29.3026C10.5176 29.1229 10.4167 28.8792 10.4167 28.625V25.6158C9.76828 25.5226 9.12766 25.3816 8.5 25.1942V28.625C8.5 29.3875 8.8029 30.1188 9.34207 30.6579C9.88123 31.1971 10.6125 31.5 11.375 31.5H28.625C29.3875 31.5 30.1188 31.1971 30.6579 30.6579C31.1971 30.1188 31.5 29.3875 31.5 28.625V11.375C31.5 10.6125 31.1971 9.88123 30.6579 9.34207C30.1188 8.8029 29.3875 8.5 28.625 8.5H25.1942C25.3801 9.121 25.52 9.76117 25.6158 10.4167Z" fill="#23A6F0"/>
</g>
<defs>
<clipPath id="clip0_401_92">
<rect width="32" height="32" fill="white" transform="translate(0 0.5)"/>
</clipPath>
</defs>
</svg>
